# This file uses centimeters as units for non-parametric coordinates.

mtllib Blockout_scene.mtl
g default
v -799.274109 0.000000 1566.991455
v 1054.091431 0.000000 1566.991455
v -799.274109 540.459106 1566.991455
v 1054.091431 540.459045 1566.991455
v -799.274109 540.459106 200.002502
v 1054.091431 540.459045 200.002502
v -799.274109 0.000000 200.002502
v 1054.091431 0.000000 200.002502
v 99.150414 0.000000 1566.991455
v 99.150414 540.459045 1566.991455
v 99.150414 540.459045 200.002502
v 99.150414 0.000000 200.002502
v -129.448593 0.000000 1566.991455
v -129.448593 540.459106 1566.991455
v -129.448593 540.459106 200.002502
v -129.448593 0.000000 200.002502
v -799.274109 245.245895 1566.991455
v -799.274109 245.245895 200.002502
v -129.448593 245.245895 200.002502
v 99.150414 245.245895 200.002502
v 1054.091431 245.245895 200.002502
v 1054.091431 245.245895 1566.991455
v 99.150414 245.245895 1566.991455
v -129.448593 245.245895 1566.991455
v -870.917908 3443.486084 1636.387817
v 760.505188 3443.486084 1636.387817
v -870.917908 4490.524414 1636.387817
v 616.058044 5500.803223 1636.387817
v -870.917908 4490.524414 294.779022
v 616.058044 5500.803223 294.779022
v -870.917908 3443.486084 294.779022
v 760.505188 3443.486084 294.779022
v -624.536133 525.630005 1505.525513
v 379.580902 525.630005 1505.525513
v -624.536133 3717.944824 1505.525513
v 379.580902 3717.944824 1505.525513
v -624.536133 3717.944824 377.401093
v 379.580902 3717.944824 377.401093
v -624.536133 525.630005 377.401093
v 379.580902 525.630005 377.401093
v -214.621887 2610.883301 896.412537
v 586.799011 2610.883301 896.412537
v -131.270035 2948.245361 896.412537
v 515.840759 2917.902832 896.412537
v -131.270035 2948.245361 237.360138
v 515.840759 2917.902832 237.360138
v -214.621887 2610.883301 237.360138
v 586.799011 2610.883301 237.360138
v -745.931885 961.421936 1659.848633
v 741.044067 961.421936 1659.848633
v -745.931885 1468.989624 1659.848633
v 741.044067 1468.989624 1659.848633
v -745.931885 1468.989624 233.462173
v 741.044067 1468.989624 233.462173
v -745.931885 961.421936 233.462173
v 741.044067 961.421936 233.462173
v -1335.047363 4453.544922 671.073730
v -1051.861206 4453.544922 671.073730
v -1335.047363 5121.500977 671.073730
v -1051.861206 5121.500977 671.073730
v -1335.047363 5121.500977 389.386230
v -1051.861206 5121.500977 389.386230
v -1335.047363 4453.544922 389.386230
v -1051.861206 4453.544922 389.386230
vt 0.375000 0.000000
vt 0.625000 0.000000
vt 0.375000 0.250000
vt 0.625000 0.250000
vt 0.375000 0.500000
vt 0.625000 0.500000
vt 0.375000 0.750000
vt 0.625000 0.750000
vt 0.375000 1.000000
vt 0.625000 1.000000
vt 0.875000 0.000000
vt 0.875000 0.250000
vt 0.125000 0.000000
vt 0.125000 0.250000
vt 0.477171 0.000000
vt 0.477171 1.000000
vt 0.477171 0.250000
vt 0.477171 0.500000
vt 0.477171 0.750000
vt 0.436930 0.000000
vt 0.436930 1.000000
vt 0.436930 0.250000
vt 0.436930 0.500000
vt 0.436930 0.750000
vt 0.375000 0.099298
vt 0.125000 0.099297
vt 0.375000 0.650702
vt 0.436930 0.650702
vt 0.477171 0.650702
vt 0.625000 0.650702
vt 0.875000 0.099297
vt 0.625000 0.099298
vt 0.477171 0.099298
vt 0.436930 0.099298
vt 0.375000 0.000000
vt 0.625000 0.000000
vt 0.625000 0.250000
vt 0.375000 0.250000
vt 0.625000 0.500000
vt 0.375000 0.500000
vt 0.625000 0.750000
vt 0.375000 0.750000
vt 0.625000 1.000000
vt 0.375000 1.000000
vt 0.875000 0.000000
vt 0.875000 0.250000
vt 0.125000 0.000000
vt 0.125000 0.250000
vt 0.375000 0.000000
vt 0.625000 0.000000
vt 0.625000 0.250000
vt 0.375000 0.250000
vt 0.625000 0.500000
vt 0.375000 0.500000
vt 0.625000 0.750000
vt 0.375000 0.750000
vt 0.625000 1.000000
vt 0.375000 1.000000
vt 0.875000 0.000000
vt 0.875000 0.250000
vt 0.125000 0.000000
vt 0.125000 0.250000
vt 0.375000 0.000000
vt 0.625000 0.000000
vt 0.625000 0.250000
vt 0.375000 0.250000
vt 0.625000 0.500000
vt 0.375000 0.500000
vt 0.625000 0.750000
vt 0.375000 0.750000
vt 0.625000 1.000000
vt 0.375000 1.000000
vt 0.875000 0.000000
vt 0.875000 0.250000
vt 0.125000 0.000000
vt 0.125000 0.250000
vt 0.375000 0.000000
vt 0.625000 0.000000
vt 0.625000 0.250000
vt 0.375000 0.250000
vt 0.625000 0.500000
vt 0.375000 0.500000
vt 0.625000 0.750000
vt 0.375000 0.750000
vt 0.625000 1.000000
vt 0.375000 1.000000
vt 0.875000 0.000000
vt 0.875000 0.250000
vt 0.125000 0.000000
vt 0.125000 0.250000
vt 0.375000 0.000000
vt 0.625000 0.000000
vt 0.625000 0.250000
vt 0.375000 0.250000
vt 0.625000 0.500000
vt 0.375000 0.500000
vt 0.625000 0.750000
vt 0.375000 0.750000
vt 0.625000 1.000000
vt 0.375000 1.000000
vt 0.875000 0.000000
vt 0.875000 0.250000
vt 0.125000 0.000000
vt 0.125000 0.250000
vn 0.000000 0.000000 1.000000
vn 0.000000 0.000000 1.000000
vn -0.000000 0.000000 1.000000
vn 0.000000 0.000000 1.000000
vn 0.000000 1.000000 0.000000
vn 0.000000 1.000000 0.000000
vn 0.000000 1.000000 0.000000
vn 0.000000 1.000000 0.000000
vn 0.000000 0.000000 -1.000000
vn 0.000000 0.000000 -1.000000
vn 0.000000 0.000000 -1.000000
vn 0.000000 0.000000 -1.000000
vn 0.000000 -1.000000 0.000000
vn 0.000000 -1.000000 0.000000
vn 0.000000 -1.000000 0.000000
vn 0.000000 -1.000000 0.000000
vn 1.000000 0.000000 0.000000
vn 1.000000 0.000000 0.000000
vn 1.000000 0.000000 0.000000
vn 1.000000 0.000000 0.000000
vn -1.000000 0.000000 0.000000
vn -1.000000 0.000000 0.000000
vn -1.000000 0.000000 0.000000
vn -1.000000 0.000000 0.000000
vn 0.000000 0.000000 1.000000
vn -0.000000 0.000000 1.000000
vn 0.000000 0.000000 1.000000
vn 0.000000 0.000000 1.000000
vn 0.000000 1.000000 0.000000
vn 0.000000 1.000000 0.000000
vn 0.000000 1.000000 0.000000
vn 0.000000 1.000000 0.000000
vn 0.000000 0.000000 -1.000000
vn 0.000000 0.000000 -1.000000
vn 0.000000 0.000000 -1.000000
vn 0.000000 0.000000 -1.000000
vn 0.000000 -1.000000 0.000000
vn 0.000000 -1.000000 0.000000
vn 0.000000 -1.000000 0.000000
vn 0.000000 -1.000000 0.000000
vn -1.000000 0.000000 0.000000
vn -1.000000 0.000000 0.000000
vn 0.000000 0.000000 -1.000000
vn 0.000000 0.000000 -1.000000
vn 0.000000 0.000000 -1.000000
vn 0.000000 0.000000 -1.000000
vn 1.000000 0.000000 0.000000
vn 1.000000 0.000000 0.000000
vn -0.000000 0.000000 1.000000
vn 0.000000 0.000000 1.000000
vn -0.000000 0.000000 1.000000
vn 0.000000 0.000000 1.000000
vn -0.000000 0.000000 1.000000
vn -0.000000 0.000000 1.000000
vn -0.000000 0.000000 1.000000
vn -0.000000 0.000000 1.000000
vn -0.561981 0.827150 0.000000
vn -0.561981 0.827150 0.000000
vn -0.561981 0.827150 0.000000
vn -0.561981 0.827150 0.000000
vn 0.000000 0.000000 -1.000000
vn 0.000000 0.000000 -1.000000
vn 0.000000 0.000000 -1.000000
vn 0.000000 0.000000 -1.000000
vn 0.000000 -1.000000 0.000000
vn 0.000000 -1.000000 0.000000
vn 0.000000 -1.000000 0.000000
vn 0.000000 -1.000000 0.000000
vn 0.997544 0.070039 0.000000
vn 0.997544 0.070039 0.000000
vn 0.997544 0.070039 0.000000
vn 0.997544 0.070039 0.000000
vn -1.000000 0.000000 0.000000
vn -1.000000 0.000000 0.000000
vn -1.000000 0.000000 0.000000
vn -1.000000 0.000000 0.000000
vn 0.000000 0.000000 1.000000
vn 0.000000 0.000000 1.000000
vn 0.000000 0.000000 1.000000
vn 0.000000 0.000000 1.000000
vn 0.000000 1.000000 0.000000
vn 0.000000 1.000000 0.000000
vn 0.000000 1.000000 0.000000
vn 0.000000 1.000000 0.000000
vn 0.000000 0.000000 -1.000000
vn 0.000000 0.000000 -1.000000
vn 0.000000 0.000000 -1.000000
vn 0.000000 0.000000 -1.000000
vn 0.000000 -1.000000 0.000000
vn 0.000000 -1.000000 0.000000
vn 0.000000 -1.000000 0.000000
vn 0.000000 -1.000000 0.000000
vn 1.000000 0.000000 0.000000
vn 1.000000 0.000000 0.000000
vn 1.000000 0.000000 0.000000
vn 1.000000 0.000000 0.000000
vn -1.000000 0.000000 0.000000
vn -1.000000 0.000000 0.000000
vn -1.000000 0.000000 0.000000
vn -1.000000 0.000000 0.000000
vn 0.000000 0.000000 1.000000
vn 0.000000 0.000000 1.000000
vn 0.000000 0.000000 1.000000
vn 0.000000 0.000000 1.000000
vn 0.046838 0.998903 0.000000
vn 0.046838 0.998903 0.000000
vn 0.046838 0.998903 0.000000
vn 0.046838 0.998903 0.000000
vn 0.000000 0.000000 -1.000000
vn 0.000000 0.000000 -1.000000
vn 0.000000 0.000000 -1.000000
vn 0.000000 0.000000 -1.000000
vn 0.000000 -1.000000 0.000000
vn 0.000000 -1.000000 0.000000
vn 0.000000 -1.000000 0.000000
vn 0.000000 -1.000000 0.000000
vn 0.974316 0.225184 0.000000
vn 0.974316 0.225184 0.000000
vn 0.974316 0.225184 0.000000
vn 0.974316 0.225184 0.000000
vn -0.970808 0.239857 0.000000
vn -0.970808 0.239857 0.000000
vn -0.970808 0.239857 0.000000
vn -0.970808 0.239857 0.000000
vn 0.000000 0.000000 1.000000
vn 0.000000 0.000000 1.000000
vn 0.000000 0.000000 1.000000
vn 0.000000 0.000000 1.000000
vn 0.000000 1.000000 0.000000
vn 0.000000 1.000000 0.000000
vn 0.000000 1.000000 0.000000
vn 0.000000 1.000000 0.000000
vn 0.000000 0.000000 -1.000000
vn 0.000000 0.000000 -1.000000
vn 0.000000 0.000000 -1.000000
vn 0.000000 0.000000 -1.000000
vn 0.000000 -1.000000 0.000000
vn 0.000000 -1.000000 0.000000
vn 0.000000 -1.000000 0.000000
vn 0.000000 -1.000000 0.000000
vn 1.000000 0.000000 0.000000
vn 1.000000 0.000000 0.000000
vn 1.000000 0.000000 0.000000
vn 1.000000 0.000000 0.000000
vn -1.000000 0.000000 0.000000
vn -1.000000 0.000000 0.000000
vn -1.000000 0.000000 0.000000
vn -1.000000 0.000000 0.000000
vn 0.000000 0.000000 1.000000
vn 0.000000 0.000000 1.000000
vn 0.000000 0.000000 1.000000
vn 0.000000 0.000000 1.000000
vn 0.000000 1.000000 0.000000
vn 0.000000 1.000000 0.000000
vn 0.000000 1.000000 0.000000
vn 0.000000 1.000000 0.000000
vn 0.000000 0.000000 -1.000000
vn 0.000000 0.000000 -1.000000
vn 0.000000 0.000000 -1.000000
vn 0.000000 0.000000 -1.000000
vn 0.000000 -1.000000 0.000000
vn 0.000000 -1.000000 0.000000
vn 0.000000 -1.000000 0.000000
vn 0.000000 -1.000000 0.000000
vn 1.000000 0.000000 0.000000
vn 1.000000 0.000000 0.000000
vn 1.000000 0.000000 0.000000
vn 1.000000 0.000000 0.000000
vn -1.000000 0.000000 0.000000
vn -1.000000 0.000000 0.000000
vn -1.000000 0.000000 0.000000
vn -1.000000 0.000000 0.000000
s 1
g pCube11
usemtl initialShadingGroup
f 1/1/1 13/20/2 24/34/3 17/25/4
s 2
f 3/3/5 14/22/6 15/23/7 5/5/8
s 3
f 18/27/9 19/28/10 16/24/11 7/7/12
s 4
f 7/7/13 16/24/14 13/21/15 1/9/16
s 5
f 2/2/17 8/11/18 21/31/19 22/32/20
s 6
f 7/13/21 1/1/22 17/25/23 18/26/24
s 1
f 22/32/25 23/33/26 9/15/27 2/2/28
s 2
f 11/18/29 10/17/30 4/4/31 6/6/32
s 3
f 12/19/33 20/29/34 21/30/35 8/8/36
s 4
f 9/16/37 12/19/38 8/8/39 2/10/40
s 1
f 23/33/26 24/34/3 13/20/2 9/15/27
s 2
f 15/23/7 14/22/6 10/17/30 11/18/29
s 3
f 16/24/11 19/28/10 20/29/34 12/19/33
s 4
f 13/21/15 16/24/14 12/19/38 9/16/37
s 6
f 18/26/24 17/25/23 3/3/41 5/14/42
s 3
f 5/5/43 15/23/44 19/28/10 18/27/9
f 20/29/34 19/28/10 15/23/44 11/18/45
f 21/30/35 20/29/34 11/18/45 6/6/46
s 5
f 22/32/20 21/31/19 6/12/47 4/4/48
s 1
f 10/17/49 23/33/26 22/32/25 4/4/50
f 14/22/51 24/34/3 23/33/26 10/17/49
f 17/25/4 24/34/3 14/22/51 3/3/52
s off
f 25/35/53 26/36/54 28/37/55 27/38/56
f 27/38/57 28/37/58 30/39/59 29/40/60
f 29/40/61 30/39/62 32/41/63 31/42/64
f 31/42/65 32/41/66 26/43/67 25/44/68
f 26/36/69 32/45/70 30/46/71 28/37/72
f 31/47/73 25/35/74 27/38/75 29/48/76
f 33/49/77 34/50/78 36/51/79 35/52/80
f 35/52/81 36/51/82 38/53/83 37/54/84
f 37/54/85 38/53/86 40/55/87 39/56/88
f 39/56/89 40/55/90 34/57/91 33/58/92
f 34/50/93 40/59/94 38/60/95 36/51/96
f 39/61/97 33/49/98 35/52/99 37/62/100
f 41/63/101 42/64/102 44/65/103 43/66/104
f 43/66/105 44/65/106 46/67/107 45/68/108
f 45/68/109 46/67/110 48/69/111 47/70/112
f 47/70/113 48/69/114 42/71/115 41/72/116
f 42/64/117 48/73/118 46/74/119 44/65/120
f 47/75/121 41/63/122 43/66/123 45/76/124
f 49/77/125 50/78/126 52/79/127 51/80/128
f 51/80/129 52/79/130 54/81/131 53/82/132
f 53/82/133 54/81/134 56/83/135 55/84/136
f 55/84/137 56/83/138 50/85/139 49/86/140
f 50/78/141 56/87/142 54/88/143 52/79/144
f 55/89/145 49/77/146 51/80/147 53/90/148
f 57/91/149 58/92/150 60/93/151 59/94/152
f 59/94/153 60/93/154 62/95/155 61/96/156
f 61/96/157 62/95/158 64/97/159 63/98/160
f 63/98/161 64/97/162 58/99/163 57/100/164
f 58/92/165 64/101/166 62/102/167 60/93/168
f 63/103/169 57/91/170 59/94/171 61/104/172
